<svg xmlns="http://www.w3.org/2000/svg" version="1.1" xmlns:xlink="http://www.w3.org/1999/xlink" xmlns:svgjs="http://svgjs.com/svgjs" width="2050" height="300" transform="matrix(1,0,0,1,0,0)">
  <text font-family="DM Sans" font-size="260" text-anchor="left" x="310" charspacing="20px">
    <tspan dy="239.20000000000002" x="310">GenZ Thing</tspan>
  </text>
  <path transform="matrix(1,0,0,1,148,149.33)" d="M-75.036,61.868A14.591204021835193,14.591204021835193,-37.473129368844326,0,0,-75.5,89.5L-70.556,91.27A39,39,268.15764545604185,0,0,-21.134,68.872L-2.164,20.816A39,39,99.3048644091221,0,1,42.377,-2.978L51.5,-1A11.382597681192436,11.382597681192436,30.01061950368038,0,1,52.562,20.963ZM-61.868,-75.036A14.591204021835193,14.591204021835193,-37.473129368844326,0,0,-89.5,-75.5L-91.27,-70.556A39,39,-91.84235454395817,0,0,-68.872,-21.134L-20.816,-2.164A39,39,99.30486440912212,0,1,2.978,42.377L1,51.5A11.382597681192436,11.382597681192436,-329.98938049631965,0,1,-20.963,52.562ZM75.036,-61.868A14.591204021835193,14.591204021835193,-37.473129368844326,0,0,75.5,-89.5L70.556,-91.27A39,39,-91.84235454395817,0,0,21.134,-68.872L2.164,-20.816A39,39,-260.6951355908779,0,1,-42.377,2.978L-51.5,1A11.382597681192436,11.382597681192436,30.01061950368038,0,1,-52.562,-20.963ZM61.868,75.036A14.591204021835182,14.591204021835182,322.5268706311557,0,0,89.5,75.5L91.27,70.556A39,39,-91.84235454395818,0,0,68.872,21.134L20.816,2.164A39,39,99.3048644091221,0,1,-2.978,-42.377L-1,-51.5A11.382597681192436,11.382597681192436,30.01061950368038,0,1,20.963,-52.562Z"/>
</svg>